<mxfile host="app.diagrams.net" modified="2023-03-31T02:02:40.918Z" agent="Mozilla/5.0 (Windows NT 10.0; WOW64) AppleWebKit/537.36 (KHTML, like Gecko) Chrome/96.0.4664.45 Safari/537.36" version="21.1.2" etag="CCFJplqVS3yY7seY6CNO" type="github">
  <diagram name="第 1 页" id="QBfoqB60wACpwiw4Q6eG">
    <mxGraphModel>
      <root>
        <mxCell id="0" />
        <mxCell id="1" parent="0" />
      </root>
    </mxGraphModel>
  </diagram>
</mxfile>
